<svg xmlns="http://www.w3.org/2000/svg" xmlns:xlink="http://www.w3.org/1999/xlink" width="18" height="18" viewBox="0 0 18 18">
  <defs>
    <clipPath id="clip-inst">
      <rect width="18" height="18"/>
    </clipPath>
  </defs>
  <g id="inst" clip-path="url(#clip-inst)">
    <rect width="18" height="18" fill="#fff"/>
    <g id="Rectangle_1" data-name="Rectangle 1" fill="none" stroke="#222" stroke-linejoin="round" stroke-width="2">
      <rect width="18" height="18" rx="2" stroke="none"/>
      <rect x="1" y="1" width="16" height="16" rx="1" fill="none"/>
    </g>
    <path id="Subtraction_1" data-name="Subtraction 1" d="M-236,7h-14a2,2,0,0,1-2-2V1a2,2,0,0,1,2-2h14a2,2,0,0,1,2,2V5A2,2,0,0,1-236,7Zm-3-6a1,1,0,0,0-1,1V4a1,1,0,0,0,1,1h2a1,1,0,0,0,1-1V2a1,1,0,0,0-1-1Z" transform="translate(252 1)" fill="#222"/>
    <g id="Ellipse_3" data-name="Ellipse 3" transform="translate(4 5)" fill="#fff" stroke="#222" stroke-width="2">
      <circle cx="5" cy="5" r="5" stroke="none"/>
      <circle cx="5" cy="5" r="4" fill="none"/>
    </g>
  </g>
</svg>
