<svg xmlns="http://www.w3.org/2000/svg" width="380" height="400" viewBox="0 0 380 400">
  <g id="surface21142852" transform="translate(-50 -40)">
    <path id="Path_1" data-name="Path 1" d="M424.59,325.191c-10.371-33.363-95.391-195.961-121.2-245l-.262-.48A70.416,70.416,0,0,0,240,40c-26.762,0-51.531,15.59-62.91,39.289l-.48.91C150.8,129.23,65.781,291.828,55.422,325.18,52.609,334.211,50,344.07,50,355a85.094,85.094,0,0,0,85,85c46.539,0,76.121-19.488,105-51.84C268.879,420.512,298.461,440,345,440a85.094,85.094,0,0,0,85-85C430,344.07,427.391,334.211,424.59,325.191Zm-184.6,21.43C223.3,325.148,200,288.809,200,260a40,40,0,0,1,80,0C280,288.719,256.68,325.109,239.988,346.621ZM345,410c-32.871,0-55.211-11.07-83.25-42.578C278.781,345.961,310,301.039,310,260a70,70,0,0,0-140,0c0,41.039,31.219,85.961,48.25,107.422C190.211,398.93,167.871,410,135,410a55.066,55.066,0,0,1-55-55c0-6.531,1.621-13.078,4.059-20.9C91.7,309.5,153,189.48,203.16,94.172l.762-1.461a40.014,40.014,0,0,1,72.227.141l.68,1.32C327,189.48,388.3,309.5,395.949,334.109,398.379,341.922,400,348.469,400,355A55.066,55.066,0,0,1,345,410Zm0,0" fill="#fe395c"/>
  </g>
</svg>
