<?xml version="1.0" encoding="UTF-8"?>
<svg xmlns="http://www.w3.org/2000/svg" xmlns:xlink="http://www.w3.org/1999/xlink" viewBox="0 0 480 480" width="480px" height="480px">
<g id="surface21142852">
<path style=" stroke:none;fill-rule:nonzero;fill:rgb(100%,100%,100%);fill-opacity:1;" d="M 424.589844 325.191406 C 414.21875 291.828125 329.199219 129.230469 303.390625 80.191406 L 303.128906 79.710938 C 291.53125 55.589844 266.761719 40 240 40 C 213.238281 40 188.46875 55.589844 177.089844 79.289062 L 176.609375 80.199219 C 150.800781 129.230469 65.78125 291.828125 55.421875 325.179688 C 52.609375 334.210938 50 344.070312 50 355 C 50 401.871094 88.128906 440 135 440 C 181.539062 440 211.121094 420.511719 240 388.160156 C 268.878906 420.511719 298.460938 440 345 440 C 391.871094 440 430 401.871094 430 355 C 430 344.070312 427.390625 334.210938 424.589844 325.191406 Z M 239.988281 346.621094 C 223.300781 325.148438 200 288.808594 200 260 C 200 237.941406 217.941406 220 240 220 C 262.058594 220 280 237.941406 280 260 C 280 288.71875 256.679688 325.109375 239.988281 346.621094 Z M 345 410 C 312.128906 410 289.789062 398.929688 261.75 367.421875 C 278.78125 345.960938 310 301.039062 310 260 C 310 221.398438 278.589844 190 240 190 C 201.410156 190 170 221.398438 170 260 C 170 301.039062 201.21875 345.960938 218.25 367.421875 C 190.210938 398.929688 167.871094 410 135 410 C 104.679688 410 80 385.328125 80 355 C 80 348.46875 81.621094 341.921875 84.058594 334.101562 C 91.699219 309.5 153 189.480469 203.160156 94.171875 L 203.921875 92.710938 C 210.550781 78.910156 224.710938 70 240 70 C 255.289062 70 269.449219 78.910156 276.148438 92.851562 L 276.828125 94.171875 C 327 189.480469 388.300781 309.5 395.949219 334.109375 C 398.378906 341.921875 400 348.46875 400 355 C 400 385.328125 375.320312 410 345 410 Z M 345 410 "/>
</g>
</svg>
