<svg xmlns="http://www.w3.org/2000/svg" xmlns:xlink="http://www.w3.org/1999/xlink" width="16.88" height="13.61" viewBox="0 0 16.88 13.61">
  <defs>
    <clipPath id="clip-twtw">
      <rect width="16.88" height="13.61"/>
    </clipPath>
  </defs>
  <g id="twtw" clip-path="url(#clip-twtw)">
    <rect width="16.88" height="13.61" fill="#fff"/>
    <path id="Icon_simple-twitter" data-name="Icon simple-twitter" d="M16.847,5a7.033,7.033,0,0,1-1.987.545,3.487,3.487,0,0,0,1.521-1.915,7.148,7.148,0,0,1-2.2.833A3.459,3.459,0,0,0,8.2,6.827a3.541,3.541,0,0,0,.089.791A9.8,9.8,0,0,1,1.153,4.013,3.391,3.391,0,0,0,.685,5.753,3.461,3.461,0,0,0,2.224,8.634,3.449,3.449,0,0,1,.657,8.2v.043a3.462,3.462,0,0,0,2.775,3.395,3.492,3.492,0,0,1-1.556.06,3.472,3.472,0,0,0,3.238,2.4,6.94,6.94,0,0,1-4.292,1.48A7.345,7.345,0,0,1,0,15.535a9.843,9.843,0,0,0,5.315,1.554A9.774,9.774,0,0,0,15.16,7.252c0-.147,0-.3-.011-.443a6.988,6.988,0,0,0,1.73-1.792L16.847,5Z" transform="translate(0 -3.369)" fill="#222"/>
  </g>
</svg>
